<?xml version="1.0" encoding="UTF-8"?><svg id="a" xmlns="http://www.w3.org/2000/svg" xmlns:xlink="http://www.w3.org/1999/xlink" viewBox="0 0 411.2 89.8"><defs><style>.n{fill:url(#c);}.o{fill:none;stroke:#e2e2e2;stroke-miterlimit:10;stroke-width:1.5px;}.p{letter-spacing:-.03em;}.q{fill:#b7b7b7;}.r{fill:#13294b;}.s,.t,.u{fill:#5ab7e8;}.v{fill:#4b9cd3;}.w{letter-spacing:-.03em;}.x{letter-spacing:-.03em;}.y{letter-spacing:-.02em;}.a`{letter-spacing:-.02em;}.aa{letter-spacing:0em;}.ab{letter-spacing:0em;}.ac{letter-spacing:0em;}.ad{letter-spacing:-.01em;}.ae{letter-spacing:0em;}.af{letter-spacing:-.01em;}.t{font-size:25.69px;}.t,.ag{font-family:Raleway-Light, Raleway;}.ah{letter-spacing:-.06em;}.ag{fill:#efefef;font-size:11.56px;}.u{opacity:.75;}.ai{letter-spacing:-.03em;}</style><linearGradient id="c" x1="0" y1="44.9" x2="417.59" y2="44.9" gradientTransform="matrix(1, 0, 0, 1, 0, 0)" gradientUnits="userSpaceOnUse"><stop offset="0" stop-color="#fff" stop-opacity=".1"/><stop offset=".07" stop-color="#fff" stop-opacity=".13"/><stop offset=".17" stop-color="#fff" stop-opacity=".21"/><stop offset=".3" stop-color="#fff" stop-opacity=".34"/><stop offset=".44" stop-color="#fff" stop-opacity=".53"/><stop offset=".59" stop-color="#fff" stop-opacity=".76"/><stop offset=".62" stop-color="#fff" stop-opacity=".8"/><stop offset=".66" stop-color="#fff" stop-opacity=".74"/><stop offset=".75" stop-color="#fff" stop-opacity=".59"/><stop offset=".86" stop-color="#fff" stop-opacity=".34"/><stop offset="1" stop-color="#fff" stop-opacity="0"/><stop offset="1" stop-color="#fff" stop-opacity="0"/></linearGradient></defs><g id="b"><rect id="d" class="n" width="411.2" height="89.8" rx="28.54" ry="28.54"/></g><g id="e"><text id="f" class="t" transform="translate(147.67 34.17) scale(.96 1)"><tspan class="ah" x="0" y="0">W</tspan><tspan class="ac" x="25.15" y="0">esl</tspan><tspan class="af" x="59.13" y="0">e</tspan><tspan class="ai" x="73.75" y="0">y</tspan><tspan x="86.93" y="0" xml:space="preserve"> DuBose</tspan></text><g id="g"><polygon id="h" class="u" points="142.96 73.82 323.44 73.82 331.9 55.69 151.42 55.69 142.96 73.82"/><g id="i"><text class="ag" transform="translate(155.19 68.4) scale(.96 1)"><tspan class="p" x="0" y="0">F</tspan><tspan x="6.47" y="0">ul</tspan><tspan class="x" x="16.25" y="0">l</tspan><tspan x="18.89" y="0"> </tspan><tspan class="aa" x="21.86" y="0">S</tspan><tspan x="28.78" y="0">tack</tspan><tspan class="w" x="51.02" y="0"> </tspan><tspan class="ab" x="53.64" y="0">Applic</tspan><tspan class="ae" x="87.28" y="0">a</tspan><tspan x="93.44" y="0">tion D</tspan><tspan class="ad" x="124.24" y="0">e</tspan><tspan class="y" x="130.82" y="0">v</tspan><tspan x="136.72" y="0">elope</tspan><tspan class="a`" x="167.11" y="0">r</tspan></text></g></g></g><g id="j"><line id="k" class="o" x1="143.08" y1="45.01" x2="326.26" y2="45.01"/><line id="l" class="o" x1="135.08" y1="3.53" x2="135.08" y2="86.49"/></g><g id="m"><g><path class="q" d="M111.36,70.4l-14.97,8.68v-1.91l12.35-7.33-12.35-7.33v-1.87l14.97,8.72v1.04Z"/><path class="q" d="M92.25,60.64l-12.5,18.44h-1.53l12.48-18.44h1.55Z"/></g><g><g><path class="s" d="M51.74,14.37l-4.44,13.17h-1.54l-4.69-15.22h1.54l3.95,13.27h.02l4.41-13.27h1.48l4.46,13.29h.02l3.89-13.29h1.52l-4.65,15.22h-1.56l-4.41-13.17Z"/><path class="s" d="M72.55,12.98v1.6c-1.12-.8-2.45-1.21-3.65-1.21-1.67,0-3.21,.82-3.21,2.54,0,1.49,1.18,2.21,3.51,3.24,2.43,1.11,4.16,2.09,4.16,4.4,0,2.79-2.37,4.32-5.01,4.32-1.8,0-3.34-.72-4.27-1.43v-1.74c1.08,1.11,2.72,1.8,4.29,1.8,1.8,0,3.51-.98,3.51-2.83,0-1.56-1.18-2.31-3.57-3.38-2.41-1.09-4.1-1.97-4.1-4.28,0-2.64,2.2-4.01,4.73-4.01,1.42,0,2.72,.45,3.61,.98Z"/><path class="s" d="M88.56,19.92c0,4.61-3.36,7.62-8.28,7.62h-3.51V12.33h3.51c5.05,0,8.28,3.03,8.28,7.6Zm-10.35,6.29h2.13c3.89,0,6.72-2.27,6.72-6.27s-2.83-6.29-6.67-6.29h-2.18v12.56Z"/></g><path class="q" d="M23.55,19.43l14.97-8.72v1.87l-12.39,7.33,12.39,7.33v1.91l-14.97-8.68v-1.04Z"/></g><g><g><path class="v" d="M49.6,44.9c0,1.4-.99,2.31-2.44,2.31h-1.03v-4.62h1.03c1.48,0,2.44,.92,2.44,2.3Zm-3.04,1.91h.63c1.14,0,1.98-.69,1.98-1.9s-.83-1.91-1.96-1.91h-.64v3.81Z"/><path class="v" d="M50.65,42.59h2.4v.4h-1.98v1.65h1.85v.4h-1.85v1.76h1.98v.4h-2.4v-4.62Z"/><path class="v" d="M55.88,47.21h-.45l-1.86-4.62h.46l1.63,4.13,1.61-4.13h.45l-1.85,4.62Z"/><path class="v" d="M58.49,42.59h2.4v.4h-1.98v1.65h1.85v.4h-1.85v1.76h1.98v.4h-2.4v-4.62Z"/><path class="v" d="M62.02,42.59h.42v4.21h2.09v.4h-2.51v-4.62Z"/><path class="v" d="M64.79,44.91c0-1.35,.96-2.4,2.27-2.4s2.26,1.04,2.26,2.4-.95,2.39-2.26,2.39-2.27-1.03-2.27-2.39Zm4.08,0c0-1.25-.88-1.99-1.81-1.99s-1.83,.73-1.83,1.99,.89,1.98,1.83,1.98,1.81-.73,1.81-1.98Z"/><path class="v" d="M70.35,42.59h1.05c1.03,0,1.73,.53,1.73,1.46s-.7,1.5-1.73,1.5h-.63v1.65h-.42v-4.62Zm2.35,1.47c0-.68-.48-1.06-1.27-1.06h-.66v2.15h.66c.79,0,1.27-.4,1.27-1.09Z"/><path class="v" d="M74.11,47.21h-.43l.73-4.62h.53l1.39,3.98h0l1.35-3.98h.55l.72,4.62h-.43l-.62-3.99h-.01l-1.37,3.99h-.4l-1.39-3.95h-.01l-.61,3.95Z"/><path class="v" d="M79.99,42.59h2.4v.4h-1.98v1.65h1.85v.4h-1.85v1.76h1.98v.4h-2.4v-4.62Z"/><path class="v" d="M87.06,47.21h-.39l-2.73-3.93h0v3.93h-.42v-4.62h.45l2.67,3.86h0v-3.86h.42v4.62Z"/><path class="v" d="M89.37,43h-1.49v-.4h3.41v.4h-1.49v4.21h-.43v-4.21Z"/></g><g><path class="r" d="M41.89,40.01c-.84-.09-1.18,.3-1.18,.92v2.31c0,.73-.22,1.45-.96,1.67v.02c.75,.22,.96,.93,.96,1.66v2.29c0,.62,.36,1.01,1.19,.92v.72c-1.18,.13-1.94-.52-1.94-1.54v-2.45c0-.55-.2-1.14-1.2-1.27v-.69c1.01-.15,1.2-.73,1.2-1.28v-2.48c0-1.02,.75-1.65,1.93-1.54v.73Z"/><path class="r" d="M97.46,43.29c0,.55,.2,1.14,1.2,1.28v.69c-1.01,.14-1.2,.72-1.2,1.27v2.45c0,1.02-.76,1.66-1.94,1.54v-.72c.84,.09,1.18-.3,1.18-.92v-2.29c0-.73,.23-1.45,.97-1.66v-.02c-.75-.23-.97-.94-.97-1.67v-2.31c0-.62-.33-1.01-1.17-.92v-.73c1.18-.11,1.93,.52,1.93,1.54v2.48Z"/></g></g></g></svg>